# xmcd
#
# Track frame offsets: 
#        150
#        13526
#        25707
#        39553
#        54563
#        68359
#        82490
#        97337
#        111105
#        125174
#        140172
#        154576
#        168054
#        180932
#        195284
#        209386
#        223135
#        236595
#        251225
#        265283
#        280437
#        295406
#        309673
#        324015
#        339770
#
# Disc length: 4709 seconds
#
# Revision: 0
# Processed by: cddbd v1.5.2PL0 Copyright (c) Steve Scherf et al.
# Submitted via: ExactAudioCopy v0.99pb5
#
DISCID=70126319
DTITLE=Fats Waller  - The Complete Recorded Works, Vol.1 [CD2]  FLA
DTITLE=C
DYEAR=1900
DGENRE=
TTITLE0=St. Louis Blues
TTITLE1=Lenox Avenue Blues
TTITLE2=What Do You Know About That?
TTITLE3=Shut Your Mouth
TTITLE4=Soothin' Syrup Stomp
TTITLE5=Sloppy Water Blues
TTITLE6=Loveless Love
TTITLE7=Messin' Around With The Blues
TTITLE8=The Rusty Pail
TTITLE9=Stompin' The Bug
TTITLE10=Hog-Maw Stomp
TTITLE11=Blue Black Bottom Stomp
TTITLE12=Whiteman Stomp
TTITLE13=I'm Coming. Virginia
TTITLE14=Preach The Word
TTITLE15=I'll Just Stand Around And Ring My Hands And Cry
TTITLE16=True Friendship
TTITLE17=The Christians' Trouble Is Ended
TTITLE18=Sugar
TTITLE19=Sugar
TTITLE20=Beale Street Blues
TTITLE21=Beale Street Blues
TTITLE22=I'm Going To See My Ma
TTITLE23=Fats Waller Stomp
TTITLE24=Savannah Blues
EXTD=
EXTT0=
EXTT1=
EXTT2=
EXTT3=
EXTT4=
EXTT5=
EXTT6=
EXTT7=
EXTT8=
EXTT9=
EXTT10=
EXTT11=
EXTT12=
EXTT13=
EXTT14=
EXTT15=
EXTT16=
EXTT17=
EXTT18=
EXTT19=
EXTT20=
EXTT21=
EXTT22=
EXTT23=
EXTT24=
PLAYORDER=
